<svg width="863" height="281" xmlns="http://www.w3.org/2000/svg" xmlns:xlink="http://www.w3.org/1999/xlink"><defs><path id="path-1" d="M0 .761h121.471V210.94H0z"/><path id="path-3" d="M.736.681h182.207V280.94H.736z"/></defs><g id="logotype_introlux_horizontal" fill="none" fill-rule="evenodd"><g id="Group-3" transform="translate(0 70)"><mask id="mask-2" fill="#fff"><use xlink:href="#path-1"/></mask><path id="Fill-1" fill="#35A0CD" mask="url(#mask-2)" d="M52.638 31.129L0 .761V140.92L121.471 211v-60.736l-68.833-39.712V31.129"/></g><path id="Fill-4" fill="#286AA6" d="M121.471 70.761l60.736-35.04V175.88l-60.736 35.04V70.761"/><path id="Fill-5" fill="#35A0CD" d="M121.471 70.761l-60.735-35.04V175.88l60.735 35.04V70.761"/><g id="Group-9" transform="translate(60)"><mask id="mask-4" fill="#fff"><use xlink:href="#path-3"/></mask><path id="Fill-6" fill="#71C8E6" mask="url(#mask-4)" d="M61.471.681L.736 35.721l60.735 35.04 60.736-35.04L61.471.681"/><path id="Fill-8" fill="#286AA6" mask="url(#mask-4)" d="M130.305 101.129v79.423l-68.834 39.712V281l121.472-70.08V70.761l-52.638 30.368"/></g><path id="Fill-10" fill="#FFF" d="M297.363 176.917h6.099v-72.359h-6.099z"/><path d="M328.681 176.917v-72.359h5.582l47.447 61.918v-61.918h6.098v72.359h-5.582l-47.445-62.021v62.021h-6.1" id="Fill-11" fill="#FFF"/><path d="M438.251 115.31h-14.68v26.047h14.68c9.923 0 18.295-2.48 18.295-13.024 0-10.543-8.269-13.023-18.295-13.023zm-.621-10.752c17.16 0 30.905 5.376 30.905 23.775 0 18.401-13.745 23.775-30.905 23.775h-14.059v24.809h-11.783v-72.359h25.842z" id="Fill-12" fill="#FFF"/><path d="M497.272 139.393h17.678c7.751 0 15.297-2.79 15.297-11.989 0-9.304-7.546-12.094-15.297-12.094h-17.678v24.083zm-11.782 37.524v-72.359h28.942c13.541 0 27.806 5.376 27.806 22.638 0 12.922-8.062 19.123-17.573 21.397l23.155 28.324h-14.162l-21.706-27.083h-14.68v27.083H485.49z" id="Fill-13" fill="#FFF"/><path d="M595.575 114.275c-17.469 0-26.049 12.612-26.049 26.462 0 13.851 8.58 26.462 26.049 26.462 17.573 0 26.047-12.611 26.047-26.462 0-13.85-8.474-26.462-26.047-26.462zm0-11.06c25.427 0 38.038 18.4 38.038 37.522 0 19.123-12.611 37.524-38.038 37.524-25.534 0-38.042-18.401-38.042-37.524 0-19.122 12.508-37.522 38.042-37.522z" id="Fill-14" fill="#FFF"/><path id="Fill-15" fill="#FFF" d="M668.86 104.558v55.302h33.078v17.057h-52.199v-72.359h19.121"/><path d="M778.12 104.558v44.758c0 21.811-16.539 29.15-32.56 29.15-16.024 0-32.563-7.339-32.563-29.15v-44.758h19.124v43.725c0 9.718 5.272 13.128 13.439 13.128s13.439-3.41 13.439-13.128v-43.725h19.121" id="Fill-16" fill="#FFF"/><path id="Fill-17" fill="#FFF" d="M788.249 176.917l24.808-37.627-23.259-34.732h22.328l13.127 21.295 13.128-21.295h22.329l-23.259 34.732 24.808 37.627h-22.327l-14.679-24.293-14.678 24.293h-22.326"/></g></svg>