<svg id="Layer_1" xmlns="http://www.w3.org/2000/svg" xmlns:xlink="http://www.w3.org/1999/xlink" viewBox="0 0 200 200"><style>.st2{fill:#9e9e9e}</style><defs><circle id="SVGID_1_" cx="100" cy="100" r="100"/></defs><defs><circle id="SVGID_2_" cx="100" cy="100" r="100"/></defs><use xlink:href="#SVGID_1_" overflow="visible" fill="#f5f5f5"/><clipPath id="SVGID_3_"><use xlink:href="#SVGID_1_" overflow="visible"/></clipPath><clipPath id="SVGID_4_" clip-path="url(#SVGID_3_)"><use xlink:href="#SVGID_2_" overflow="visible"/></clipPath><g clip-path="url(#SVGID_4_)"><path class="st2" d="M148.08 122.44l-15.95-6.15-8.13-8.13c-.52-.52-1.2-.81-1.88-.85v-6.47c3.83-4.09 6.56-9.26 7.66-15.09.68.03 1.37-.02 2.05-.16 3.9-.8 6.73-4.41 6.73-8.6v-2.14c0-2.42-.98-4.64-2.58-6.23 2.59-14.07.46-25.54-6.19-33.21-6.43-7.42-16.79-10.97-29.95-10.26-12.16.66-20.01 6.25-22.5 8.3-1.36.16-3.68.64-6.03 2.05-3.25 1.95-7.13 6.05-7.13 14.5 0 7.37 1.18 13.53 2.03 17.02-2.86 1.39-4.77 4.41-4.77 7.86v2.1c0 4.18 2.83 7.8 6.73 8.6.68.14 1.37.19 2.05.16 1.1 5.83 3.83 11.01 7.66 15.09v6.47c-.69.04-1.36.33-1.88.85l-8.13 8.13-15.95 6.15c-.15.06-.31.13-.46.19-.11.04-.21.09-.32.13-.18.08-.36.16-.53.24-.1.05-.19.09-.29.14-.35.17-.7.36-1.04.55-.05.03-.09.05-.14.08l-.54.33c-.07.05-.15.09-.22.14-.13.08-.26.16-.39.25-.04.02-.07.05-.1.08a19.359 19.359 0 0 0-8.36 16.73l2.27 55.89a2.921 2.921 0 0 0 2.92 2.81h.12a2.937 2.937 0 0 0 2.81-3.05l-2.27-55.89c-.06-1.41.11-2.78.47-4.09l8.89 8.89c2.55 2.55 3.96 5.95 3.96 9.56v41.66c0 1.62 1.31 2.93 2.93 2.93s2.93-1.31 2.93-2.93v-41.66c0-5.18-2.02-10.04-5.67-13.7l-10.13-10.13c1.41-1.59 3.19-2.87 5.27-3.67l14.8-5.71 11.32 16.98a8.324 8.324 0 0 0 6.17 3.7c.28.03.56.04.84.04 1.46 0 2.87-.38 4.12-1.09l-2.43 55.1a2.937 2.937 0 0 0 2.8 3.06h.13a2.92 2.92 0 0 0 2.92-2.8l2.25-51.15h6.08l2.25 51.15c.07 1.57 1.37 2.8 2.92 2.8h.13a2.93 2.93 0 0 0 2.8-3.06l-2.43-55.1a8.347 8.347 0 0 0 4.96 1.05c2.52-.25 4.77-1.6 6.17-3.7l11.32-16.98 14.81 5.71c2.08.8 3.86 2.08 5.27 3.67l-10.13 10.13a19.26 19.26 0 0 0-5.68 13.7v41.66c0 1.62 1.31 2.93 2.93 2.93s2.93-1.31 2.93-2.93v-41.66c0-3.61 1.41-7 3.96-9.56l8.89-8.89c.36 1.31.52 2.69.47 4.09l-2.27 55.89a2.93 2.93 0 0 0 2.81 3.05h.12c1.56 0 2.86-1.23 2.93-2.81l2.27-55.89c.34-8.28-4.64-15.86-12.38-18.85zM75.95 84.53c-.52-2.81-3.12-4.86-5.93-4.65-.22.02-.45 0-.68-.05-1.16-.24-2.04-1.47-2.04-2.86v-2.1c0-1.36.91-2.58 2.07-2.79.98-.17 1.91.19 2.51.96.54.7 1.26 1.2 2.07 1.45 1.2.36 2.52.15 3.54-.57a20.98 20.98 0 0 0 4.8-4.7c.97-1.3.7-3.13-.6-4.1-1.3-.97-3.13-.7-4.1.6-.68.91-1.44 1.73-2.28 2.47a8.451 8.451 0 0 0-3.18-1.7c-.75-2.88-2.09-9.06-2.09-16.51 0-4.49 1.38-7.64 4.11-9.37 2.13-1.35 4.38-1.4 4.38-1.4.75 0 1.48-.29 2.02-.81.07-.07 7.27-6.75 19.61-7.42 11.29-.61 20.01 2.24 25.2 8.24 5.24 6.05 6.98 15.34 5.09 26.97-.78-.03-1.64.03-2.5.17l-2.75-6.61a2.93 2.93 0 0 0-3.45-1.71c-.27.07-27.33 6.93-38.67-7.19a2.935 2.935 0 0 0-4.12-.45 2.935 2.935 0 0 0-.45 4.12c11.58 14.42 34.57 11.29 42.22 9.76l2.13 5.11c.92 2.2 3.26 3.4 5.56 2.85.95-.22 1.85-.23 2.19-.16 1.18.24 2.08 1.42 2.08 2.75v2.14c0 1.39-.88 2.62-2.04 2.86-.23.05-.46.06-.68.05-2.81-.2-5.42 1.84-5.93 4.65-2.13 11.6-12.24 20.02-24.04 20.02a24.418 24.418 0 0 1-24.05-20.02zm-7.13 37.67zm20.13 14.12c-.74.74-1.61.78-2.06.73a2.5 2.5 0 0 1-1.87-1.12l-11.4-17.11 4.59-4.59 17.51 15.32-6.77 6.77zm8.26 3.87l.18-4.03 2.61-2.61 2.61 2.61.18 4.03h-5.58zm2.79-14.67L83.74 111.3v-5.61c4.73 3.01 10.32 4.73 16.26 4.73s11.53-1.72 16.26-4.73v5.61L100 125.52zm14.97 10.41a2.5 2.5 0 0 1-1.87 1.12c-.45.04-1.31.01-2.06-.74l-6.76-6.76 17.51-15.32 4.59 4.59-11.41 17.11z"/><path class="st2" d="M83.55 153.81H72.59c-1.62 0-2.93 1.31-2.93 2.93s1.31 2.93 2.93 2.93h10.96c1.62 0 2.93-1.31 2.93-2.93s-1.31-2.93-2.93-2.93z"/></g></svg>