<svg id="Layer_1" xmlns="http://www.w3.org/2000/svg" xmlns:xlink="http://www.w3.org/1999/xlink" viewBox="0 0 200 200"><style>.st2{fill:#9e9e9e}</style><defs><circle id="SVGID_1_" cx="100" cy="100" r="100"/></defs><defs><circle id="SVGID_2_" cx="100" cy="100" r="100"/></defs><use xlink:href="#SVGID_1_" overflow="visible" fill="#f5f5f5"/><clipPath id="SVGID_3_"><use xlink:href="#SVGID_1_" overflow="visible"/></clipPath><clipPath id="SVGID_4_" clip-path="url(#SVGID_3_)"><use xlink:href="#SVGID_2_" overflow="visible"/></clipPath><g clip-path="url(#SVGID_4_)"><path class="st2" d="M140.64 137.8l-14.31-6.24-7.82-7.82c-.52-.52-1.2-.81-1.88-.85v-4.61a30.311 30.311 0 0 0 13.15-19.7c.77.03 1.55-.04 2.31-.22 3.75-.89 6.47-4.48 6.47-8.54v-2.14c0-2.97-1.47-5.64-3.75-7.2.67-2.66 1.01-5.38 1.01-8.12 0-12.14-6.56-22.83-16.45-28.97-.11-10.13-8.75-18.34-19.37-18.34s-19.26 8.21-19.37 18.34c-9.89 6.14-16.45 16.83-16.45 28.97 0 2.73.34 5.44 1.01 8.09-2.28 1.56-3.75 4.24-3.75 7.26v2.1c0 4.06 2.72 7.66 6.47 8.54.77.18 1.54.25 2.31.22a30.24 30.24 0 0 0 13.15 19.7v4.61c-.69.04-1.36.32-1.88.85l-7.82 7.82-14.31 6.24c-7.28 3.18-11.94 10.64-11.61 18.58l1.73 40.82A2.935 2.935 0 0 0 52.4 200h.13a2.922 2.922 0 0 0 2.8-3.05l-1.73-40.82c-.11-2.63.57-5.18 1.86-7.38l7.69 9.23c2.43 2.92 3.77 6.61 3.77 10.41v28.69c0 1.62 1.31 2.93 2.93 2.93s2.93-1.31 2.93-2.93v-28.69c0-5.16-1.82-10.19-5.13-14.16l-8.17-9.81c.69-.48 1.43-.9 2.22-1.25l12.47-5.44 8.81 14.3a5.683 5.683 0 0 0 4.83 2.7c1.34 0 2.64-.47 3.68-1.36l5.58-4.76v48.47c0 1.62 1.31 2.93 2.93 2.93s2.93-1.31 2.93-2.93V148.6l5.58 4.76a5.675 5.675 0 0 0 4.56 1.29 5.683 5.683 0 0 0 3.95-2.63l8.81-14.3 12.47 5.44c.79.34 1.53.77 2.22 1.25l-8.17 9.81a22.135 22.135 0 0 0-5.13 14.16v28.69c0 1.62 1.31 2.93 2.93 2.93s2.93-1.31 2.93-2.93v-28.69c0-3.8 1.34-7.49 3.77-10.41l7.69-9.23c1.29 2.2 1.97 4.75 1.86 7.38l-1.73 40.82a2.928 2.928 0 0 0 2.8 3.05h.13c1.56 0 2.86-1.23 2.93-2.81l1.73-40.82c.33-7.92-4.34-15.38-11.62-18.56zM100 30.91c6.23 0 11.49 3.98 13.05 9.36-4.04-1.53-8.45-2.37-13.05-2.37s-9 .84-13.05 2.37c1.56-5.38 6.82-9.36 13.05-9.36zM75.95 97.37c-.52-2.81-3.13-4.86-5.93-4.65-.25.02-.51 0-.77-.07-1.12-.26-1.96-1.49-1.96-2.84v-2.1c0-1.36.91-2.58 2.07-2.79.98-.17 1.91.19 2.51.96.54.7 1.26 1.2 2.08 1.45 1.2.36 2.52.15 3.54-.57 1.8-1.27 3.4-2.83 4.74-4.61.97-1.29.71-3.13-.58-4.1a2.932 2.932 0 0 0-4.1.58c-.66.88-1.41 1.69-2.24 2.4a8.45 8.45 0 0 0-4.42-1.95c-.56-2.21-.85-4.46-.85-6.73 0-15.76 13.44-28.59 29.96-28.59 16.52 0 29.96 12.83 29.96 28.59 0 2.27-.29 4.52-.84 6.72-.77.06-1.55.19-2.28.38l-2.2-1.81a5.601 5.601 0 0 0-3.91-1.28c-4.31.25-26.36.84-37.67-12.7a2.932 2.932 0 0 0-4.5 3.76c5.58 6.68 13.77 11.19 24.33 13.42 8.09 1.71 15.27 1.54 18.09 1.38l3.44 2.83c.95.78 2.27.89 3.33.27.5-.27 2.16-.53 2.89-.38 1.18.24 2.08 1.42 2.08 2.75v2.14c0 1.36-.84 2.58-1.96 2.84-.26.06-.52.08-.77.06-2.81-.2-5.42 1.84-5.93 4.65-2.13 11.6-12.24 20.03-24.04 20.03-11.82-.02-21.93-8.44-24.07-20.04zm11.9 51.4l-8.81-14.3 4.51-4.51 12.13 12.13-7.83 6.68zM100 138.11l-10.78-10.78v-6.06c3.36 1.28 7 1.98 10.78 1.98 3.78 0 7.41-.7 10.78-1.98v6.06L100 138.11zm12.15 10.66l-7.83-6.69 12.13-12.13 4.51 4.51-8.81 14.31z"/><path class="st2" d="M89.04 166.73h-8.22c-1.62 0-2.93 1.31-2.93 2.93s1.31 2.93 2.93 2.93h8.22c1.62 0 2.93-1.31 2.93-2.93s-1.32-2.93-2.93-2.93z"/></g></svg>